<svg width="749" height="752" xmlns="http://www.w3.org/2000/svg" xmlns:xlink="http://www.w3.org/1999/xlink" xml:space="preserve" overflow="hidden"><g transform="translate(-1482 -553)"><path d="M1495 914C1495 714.625 1656.85 553 1856.5 553 2056.15 553 2218 714.625 2218 914 2218 1113.37 2056.15 1275 1856.5 1275 1656.85 1275 1495 1113.37 1495 914Z" fill="#156082" fill-rule="evenodd" fill-opacity="0.890196"/><path d="M1546 908.5C1546 743.643 1685.24 610 1857 610 2028.76 610 2168 743.643 2168 908.5 2168 1073.36 2028.76 1207 1857 1207 1685.24 1207 1546 1073.36 1546 908.5Z" fill="#3CADE0" fill-rule="evenodd"/><text fill="#FFFFFF" font-family="Aptos,Aptos_MSFontService,sans-serif" font-weight="700" font-size="330" transform="matrix(1 0 0 1 1680.98 1016)">26</text></g></svg>